<svg xmlns="http://www.w3.org/2000/svg" width="197.8" height="144.7" viewBox="0 0 197.8 144.7">
  <path d="M-1.4-.7h200.7v146.2H-1.4z"/>
  <path d="M99.4 121.4h4c.9 0 1.6 1 1.6 2.1 0 1.2-.7 2.2-1.7 2.2h-8c-.8 0-1.6-1-1.6-2.2 0-1.2.8-2.1 1.7-2.1m0-7.9c-1 0-1.7 1-1.7 2.2 0 1.1.8 2.1 1.7 2.1h8c.9 0 1.6-1 1.6-2.2 0-1.1-.7-2.1-1.7-2.1h-4m-4-7.9c-.8 0-1.6 1-1.6 2.2 0 1.2.8 2.1 1.7 2.1h8c.9 0 1.6-1 1.6-2.1 0-1.2-.7-2.2-1.7-2.2h-4m-4-7.9c-.8 0-1.6 1-1.6 2.2 0 1.2.8 2.1 1.7 2.1h8c.9 0 1.6-1 1.6-2.1 0-1.2-.7-2.2-1.7-2.2h-4m-4-7.9c-.8 0-1.6 1-1.6 2.2 0 1.2.8 2.1 1.7 2.1h8c.9 0 1.6-1 1.6-2.1 0-1.2-.7-2.2-1.7-2.2h-4m-4-7.8c-.8 0-1.6 1-1.6 2.1 0 1.2.8 2.2 1.7 2.2h8c.9 0 1.6-1 1.6-2.2 0-1.2-.7-2.1-1.7-2.1h-4m-4-8c-.8 0-1.6 1-1.6 2.2 0 1.2.8 2.2 1.7 2.2h8c.9 0 1.6-1 1.6-2.2 0-1.2-.7-2.1-1.7-2.1h-4m-4-7.9c-.8 0-1.6 1-1.6 2.2 0 1.1.8 2.1 1.7 2.1h8c.9 0 1.6-1 1.6-2.1 0-1.2-.7-2.2-1.7-2.2h-4m-4-7.9c-.8 0-1.6 1-1.6 2.2 0 1.2.8 2.1 1.7 2.1h8c.9 0 1.6-1 1.6-2.1 0-1.2-.7-2.2-1.7-2.2h-4m-4-7.9c-.8 0-1.6 1-1.6 2.2 0 1.2.8 2.1 1.7 2.1h8c.9 0 1.6-1 1.6-2.1 0-1.2-.7-2.2-1.7-2.2h-4m-4-7.9c-.8 0-1.6 1-1.6 2.2 0 1.2.8 2.1 1.7 2.1h8c.9 0 1.6-1 1.6-2.1 0-1.2-.7-2.2-1.7-2.2h-4m-4-7.8c-.8 0-1.6 1-1.6 2.1 0 1.2.8 2.2 1.7 2.2h8c.9 0 1.6-1 1.6-2.2 0-1.2-.7-2.1-1.7-2.1h-4m-4-8c-.8 0-1.6 1-1.6 2.2 0 1.2.8 2.2 1.7 2.2h8c.9 0 1.6-1 1.6-2.2 0-1.2-.7-2.1-1.7-2.1h-4m-4-7.9c-.8 0-1.6 1-1.6 2.2 0 1.1.8 2.1 1.7 2.1h8c.9 0 1.6-1 1.6-2.2 0-1.1-.7-2.1-1.7-2.1h-4m8.5 102.6c-.9 0-1.7 1-1.7 2.1 0 1.2.7 2.2 1.6 2.2h8c.9 0 1.7-1 1.7-2.2 0-1.1-.7-2.1-1.6-2.1h-4m-3.7-7.9c-1 0-1.7 1-1.8 2.2 0 1.1.7 2.1 1.7 2.1h7.9c1 0 1.7-1 1.8-2.1 0-1.2-.7-2.2-1.7-2.2h-4m-3.6-7.9c-1 0-1.8 1-1.8 2.2 0 1.2.7 2.1 1.6 2.1h8c.9 0 1.7-1 1.7-2.1 0-1.2-.7-2.2-1.6-2.2h-4m-3.7-7.9c-1 0-1.7 1-1.7 2.2 0 1.2.6 2.1 1.6 2.1h7.9c1 0 1.7-1 1.8-2.1 0-1.2-.7-2.2-1.7-2.2h-4M109 90c-1 0-1.7 1-1.8 2.1 0 1.2.7 2.2 1.6 2.2h8c.9 0 1.7-1 1.7-2.2 0-1.2-.7-2.1-1.6-2.1h-4m-3.7-8c-1 0-1.7 1-1.7 2.2 0 1.2.7 2.2 1.6 2.2h8c.8 0 1.6-1 1.7-2.2 0-1.2-.7-2.1-1.6-2.1h-4m-3.7-7.9c-1 0-1.7 1-1.8 2.1 0 1.2.7 2.2 1.7 2.2h7.9c1 0 1.7-1 1.7-2.2 0-1.1-.7-2.1-1.6-2.1h-4m-3.7-7.9c-.9 0-1.7 1-1.7 2.2 0 1.2.7 2.1 1.6 2.1h8c.9 0 1.7-1 1.7-2.1 0-1.2-.7-2.2-1.6-2.2h-4m-3.7-7.9c-1 0-1.7 1-1.8 2.2 0 1.2.7 2.1 1.7 2.1h7.9c1 0 1.7-1 1.8-2.1 0-1.2-.7-2.2-1.7-2.2h-4m-3.6-7.9c-1 0-1.8 1-1.8 2.2 0 1.2.7 2.1 1.6 2.1h8c.9 0 1.7-1 1.7-2.1 0-1.2-.7-2.2-1.6-2.2h-4m-3.7-7.8c-1 0-1.7 1-1.7 2.1 0 1.2.6 2.2 1.6 2.2h8c.8 0 1.6-1 1.7-2.2 0-1.2-.7-2.1-1.7-2.1h-4m6 78.8c-1 0-1.8 1-1.9 2.1 0 1.2.6 2.2 1.6 2.2h7.9c1 0 1.8-1 1.9-2.2 0-1.2-.6-2.1-1.6-2.1h-4m-3.3-8c-1 0-1.8 1-1.9 2.3 0 1.1.6 2.1 1.6 2.1h7.9c1 0 1.8-1 1.8-2.2.1-1.1-.6-2.1-1.5-2.1h-4m-3.3-7.9c-1 0-1.8 1-1.9 2.2 0 1.2.6 2.1 1.5 2.1h8c.9 0 1.7-1 1.8-2.1.1-1.2-.6-2.2-1.5-2.2h-4m-3.4-7.9c-.9 0-1.7 1-1.8 2.2-.1 1.2.6 2.1 1.5 2.1h8c.9 0 1.7-1 1.8-2.1 0-1.2-.6-2.2-1.5-2.2h-4m-3.4-7.9c-1 0-1.7 1-1.8 2.2-.1 1.2.6 2.1 1.5 2.1h8c.9 0 1.7-1 1.8-2.1 0-1.2-.6-2.2-1.6-2.2h-4m-3.3-7.8c-1 0-1.8 1-1.8 2.1-.1 1.2.5 2.2 1.5 2.2h7.9c1 0 1.8-1 1.9-2.2 0-1.2-.6-2.1-1.6-2.1h-4m-3.3-8c-1 0-1.8 1-1.9 2.2 0 1.2.6 2.2 1.6 2.2h7.9c1 0 1.8-1 1.8-2.2.1-1.2-.6-2.1-1.5-2.1h-4m-3.3-7.9c-1 0-1.8 1-1.9 2.1 0 1.2.6 2.2 1.5 2.2h8c.9 0 1.7-1 1.8-2.2.1-1.1-.6-2.1-1.5-2.1h-4m4.5 55c-1 0-1.8 1-1.9 2.2 0 1.2.6 2.2 1.5 2.2h8c.9 0 1.7-1 1.8-2.2.1-1.2-.5-2.1-1.5-2.1h-4m-3.2-8c-1 0-1.8 1-1.9 2.2 0 1.2.6 2.2 1.5 2.2h8c.9 0 1.7-1 1.8-2.2.2-1.2-.5-2.1-1.5-2.1h-4m-3.2-7.9c-1 0-1.7 1-1.9 2.2 0 1.1.6 2.1 1.5 2.1h8c.9 0 1.7-1 1.9-2.1 0-1.2-.6-2.2-1.6-2.2h-4m-3.2-7.9c-.9 0-1.7 1-1.8 2.2-.2 1.2.5 2.1 1.5 2.1h7.9c1 0 1.8-1 1.9-2.1 0-1.2-.6-2.2-1.5-2.2h-4m-3.3-7.9c-.9 0-1.7 1-1.8 2.2-.1 1.2.5 2.1 1.5 2.1h7.9c1 0 1.8-1 1.9-2.1 0-1.2-.6-2.2-1.5-2.2h-4m6 31.6c-1 0-1.8 1-2 2.1-.2 1.2.5 2.2 1.4 2.2h8c.8 0 1.7-1 1.9-2.2.2-1.2-.5-2.1-1.4-2.1h-4m-2.8-8c-1 0-1.8 1-2 2.2-.2 1.2.4 2.2 1.4 2.2h7.9c1 0 1.8-1 2-2.2.2-1.2-.5-2.1-1.4-2.1h-4m-2.8-7.9c-1 0-1.8 1-2 2.2-.2 1.1.4 2.1 1.4 2.1h7.9c1 0 1.8-1 2-2.1.2-1.2-.5-2.2-1.4-2.2h-4m-2.8-7.9c-1 0-1.8 1-2 2.2-.2 1.2.4 2.1 1.4 2.1h7.9c1 0 1.8-1 2-2.1.2-1.2-.5-2.2-1.4-2.2h-4m-2.8-7.9c-1 0-1.8 1-2 2.2-.2 1.2.4 2.1 1.4 2.1h7.9c1 0 1.8-1 2-2.1.2-1.2-.5-2.2-1.4-2.2h-4m-2.8-7.8c-1 0-1.9 1-2 2.1-.2 1.2.4 2.2 1.4 2.2h7.9c1 0 1.8-1 2-2.2.2-1.2-.5-2.1-1.4-2.1h-4m-2.8-8c-1 0-1.9 1-2 2.2-.2 1.2.4 2.2 1.4 2.2h7.9c1 0 1.8-1 2-2.2.2-1.2-.5-2.1-1.4-2.1h-4m2.1 47.3c-1 0-1.9 1-2 2.1-.3 1.2.3 2.2 1.2 2.2h8c.9 0 1.8-1 2-2.2.2-1.2-.3-2.1-1.3-2.1h-4m-2.5-8c-1 0-1.8 1-2 2.2-.3 1.2.3 2.2 1.3 2.2h7.9c1 0 1.8-1 2-2.2.3-1.2-.3-2.1-1.2-2.1h-4m-2.5-7.9c-1 0-1.9 1-2.1 2.2-.2 1.1.3 2.1 1.3 2.1h7.9c1 0 1.9-1 2.1-2.1.2-1.2-.4-2.2-1.3-2.2h-4m-2.5-7.9c-1 0-1.9 1-2 2.2-.3 1.2.3 2.1 1.2 2.1h8c.9 0 1.8-1 2-2.1.2-1.2-.3-2.2-1.3-2.2h-4m-2.5-7.9c-1 0-1.8 1-2 2.2-.3 1.2.3 2.1 1.2 2.1h8c1 0 1.8-1 2-2.1.3-1.2-.3-2.2-1.2-2.2h-4m-2.5-7.8c-1 0-2 1-2.1 2.1-.2 1.2.3 2.2 1.3 2.2h7.9c1 0 1.9-1 2-2.2.3-1.2-.3-2.1-1.2-2.1h-4m-2.5-8c-1 0-1.9 1-2 2.2-.3 1.2.3 2.2 1.2 2.2h8c.9 0 1.8-1 2-2.2.2-1.2-.3-2.1-1.3-2.1h-4m-2.5-8c-1 0-1.8 1-2 2.2-.3 1.2.3 2.2 1.2 2.2h8c.9 0 1.8-1 2-2.2.3-1.2-.3-2.1-1.2-2.1h-4m-2.5-7.9c-1 0-2 1-2.1 2.1-.2 1.2.3 2.2 1.3 2.2h7.9c1 0 1.9-1 2-2.2.3-1.1-.3-2.1-1.2-2.1h-4m-90.5 63.2c-1 0-1.6 1-1.6 2.2 0 1.2.8 2.1 1.8 2.1h8c.8 0 1.6-1 1.5-2.1 0-1.2-.8-2.2-1.8-2.2h-4m-4.2-7.9c-1 0-1.7 1-1.6 2.2 0 1.2.8 2.1 1.8 2.1h7.9c1 0 1.6-1 1.6-2.1 0-1.2-.9-2.2-1.8-2.2h-4m-4.2-7.8c-1 0-1.7 1-1.6 2.1 0 1.2.8 2.2 1.7 2.2h8c.9 0 1.6-1 1.6-2.2 0-1.2-.9-2.1-1.8-2.1h-4m-4.3-8c-.9 0-1.6 1-1.6 2.2 0 1.2.9 2.2 1.8 2.2h8c.9 0 1.6-1 1.5-2.2 0-1.2-.8-2.1-1.7-2.1h-4m-4.3-8c-1 0-1.6 1-1.6 2.2 0 1.2.9 2.2 1.8 2.2h8c.9 0 1.6-1 1.5-2.2 0-1.1-.8-2.1-1.8-2.1h-4M81.6 82c-1 0-1.7 1-1.6 2.2 0 1.1.8 2.1 1.8 2.1h7.9c1 0 1.7-1 1.6-2.1 0-1.2-.8-2.2-1.8-2.2h-4m-4.2-7.9c-1 0-1.7 1-1.6 2.2 0 1.2.8 2.1 1.8 2.1h7.9c1 0 1.6-1 1.6-2.1 0-1.2-.9-2.2-1.8-2.2h-4M81 66.3c-1 0-1.7 1-1.7 2.2.1 1.2.9 2.1 1.8 2.1h8c.9 0 1.6-1 1.6-2.1 0-1.2-.9-2.2-1.8-2.2h-4m-4.3-7.8c-1 0-1.6 1-1.6 2.1 0 1.2.9 2.2 1.8 2.2h8c.9 0 1.6-1 1.5-2.2 0-1.2-.8-2.1-1.8-2.1h-4m-4.2-8c-1 0-1.6 1-1.6 2.2 0 1.2.8 2.2 1.8 2.2h8c.8 0 1.6-1 1.5-2.2 0-1.2-.8-2.1-1.8-2.1h-4m-4.2-8c-1 0-1.7 1-1.6 2.2 0 1.2.8 2.2 1.8 2.2H88c1 0 1.6-1 1.6-2.2 0-1.2-.9-2.1-1.8-2.1h-4m-13 78.8c-.9 0-1.5 1-1.4 2.2 0 1.1.9 2.1 1.8 2.1h8c.9 0 1.6-1 1.5-2.1-.1-1.2-1-2.2-1.9-2.2h-4m-4.6-7.9c-.9 0-1.6 1-1.5 2.2.1 1.2 1 2.1 1.9 2.1h8c.8 0 1.5-1 1.4-2.1 0-1.2-1-2.2-1.8-2.2h-4m-4.6-7.9c-1 0-1.6 1-1.5 2.2 0 1.2.9 2.1 1.8 2.1h8c.9 0 1.6-1 1.5-2.1-.1-1.2-1-2.2-1.9-2.2h-4M69 98c-.9 0-1.6 1-1.5 2.1.1 1.2 1 2.2 1.9 2.2h8c.8 0 1.5-1 1.4-2.2 0-1.2-1-2.1-1.8-2.1h-4m-4.6-8c-1 0-1.6 1-1.5 2.2 0 1.2 1 2.2 1.8 2.2h8c.9 0 1.6-1 1.5-2.2C78 91 77 90 76.2 90h-4m-4.6-8c-.9 0-1.6 1-1.5 2.2.1 1.2 1 2.2 1.9 2.2h8c.9 0 1.5-1 1.4-2.2 0-1.2-.9-2.1-1.8-2.1h-4M67 74.2c-1 0-1.6 1-1.5 2.2 0 1.1 1 2.1 1.9 2.1h7.9c1 0 1.6-1 1.5-2.1-.1-1.2-1-2.2-1.9-2.2h-4m-4.5-7.9c-1 0-1.7 1-1.6 2.2.1 1.2 1 2.1 1.9 2.1h8c.9 0 1.5-1 1.4-2.1 0-1.2-.9-2.2-1.8-2.2h-4m-12.1 55.2c-1 0-1.6 1-1.4 2.1 0 1.2 1 2.2 1.9 2.2h8c.9 0 1.5-1 1.4-2.2-.2-1.2-1-2.1-2-2.1h-4m-4.8-8c-1 0-1.6 1-1.4 2.2 0 1.2 1 2.2 1.9 2.2h8c.8 0 1.5-1 1.4-2.2-.2-1.2-1-2.1-2-2.1h-4m-4.8-7.9c-1 0-1.6 1-1.5 2.1.2 1.2 1 2.2 2 2.2h7.9c1 0 1.6-1 1.4-2.2 0-1.1-1-2.1-1.9-2.1h-4m-4.8-7.9c-1 0-1.6 1-1.5 2.2.2 1.2 1 2.1 2 2.1h7.9c1 0 1.6-1 1.4-2.1-.1-1.2-1-2.2-2-2.2h-3.9M54.6 90c-1 0-1.6 1-1.5 2.2.2 1.2 1 2.1 2 2.1H63c1 0 1.6-1 1.4-2.1-.1-1.2-1-2.2-2-2.2h-3.9M46 121.5c-1 0-1.6 1-1.4 2.2.2 1.2 1.1 2.1 2 2.1h8c.9 0 1.5-1 1.3-2.1-.2-1.2-1-2.2-2-2.2h-4m-5.2-7.9c-1 0-1.5 1-1.3 2.2.2 1.2 1 2.1 2 2.1h8c.9 0 1.5-1 1.3-2.1-.2-1.2-1.1-2.2-2-2.2h-4m-5.2-7.8c-1 0-1.6 1-1.4 2.1.2 1.2 1.1 2.2 2 2.2h8c1 0 1.5-1 1.3-2.2-.1-1.2-1-2.1-2-2.1h-4m-5.1-8c-1 0-1.6 1-1.4 2.2.2 1.2 1 2.2 2 2.2h8c.9 0 1.5-1 1.3-2.2-.2-1.2-1-2.1-2-2.1h-4m-5.2-8c-1 0-1.5 1-1.3 2.2.1 1.2 1 2.2 2 2.2h8c.8 0 1.4-1 1.3-2.2-.2-1.2-1.1-2.1-2-2.1h-4M39.7 82c-1 0-1.6 1-1.4 2.2.2 1.1 1.1 2.1 2 2.1h8c.9 0 1.5-1 1.3-2.2-.2-1.1-1-2.1-2-2.1h-4m-5.2-7.9c-1 0-1.5 1-1.3 2.2.2 1.2 1 2.1 2 2.1h8c.9 0 1.5-1 1.3-2.1-.2-1.2-1.1-2.2-2-2.2h-4m-9 47.3c-.9 0-1.4 1-1.2 2.2.3 1.1 1.2 2.1 2.2 2.1h7.9c1 0 1.5-1 1.2-2.1-.2-1.2-1.2-2.2-2.1-2.2h-4m-5.7-8c-1 0-1.5 1-1.2 2.2.2 1.2 1.2 2.1 2.1 2.1h8c.9 0 1.4-1 1.2-2.1-.3-1.2-1.2-2.2-2.1-2.2h-4m-5.6-7.8c-1 0-1.5 1-1.3 2.1.3 1.2 1.2 2.2 2.2 2.2h7.9c1 0 1.5-1 1.2-2.2-.2-1.2-1.2-2.1-2.1-2.1h-4m-5.6-8c-.9 0-1.5 1-1.2 2.2.2 1.2 1.2 2.2 2.1 2.2h8c.9 0 1.4-1 1.2-2.2-.2-1.2-1.2-2.1-2.1-2.1h-4m-5.6-8c-1 0-1.5 1-1.3 2.2.3 1.2 1.2 2.2 2.2 2.2h8c.8 0 1.4-1 1.2-2.2-.3-1.2-1.3-2.1-2.2-2.1h-4M25.1 82c-.9 0-1.4 1-1.2 2.2.2 1.1 1.2 2.1 2.1 2.1h8c.9 0 1.5-1 1.2-2.1C35 83 34 82 33.1 82h-4m-5.6-7.9c-1 0-1.5 1-1.2 2.2.2 1.2 1.1 2.1 2.1 2.1h8c.9 0 1.4-1 1.2-2.1-.3-1.2-1.2-2.2-2.2-2.2h-4m-5.6-7.9c-.9 0-1.4 1-1.2 2.2.3 1.2 1.2 2.1 2.1 2.1h8c.9 0 1.5-1 1.2-2.1-.2-1.2-1.2-2.2-2.1-2.2h-4m-5.6-7.8c-1 0-1.5 1-1.2 2.1.2 1.2 1.2 2.2 2.1 2.2h8c.9 0 1.4-1 1.2-2.2-.3-1.2-1.2-2.1-2.2-2.1h-4" fill="#b89c4f" fill-rule="evenodd"/>
</svg>
