<svg xmlns="http://www.w3.org/2000/svg" width="111.953" height="86.246" viewBox="10.921 0 111.953 86.246" enable-background="new 10.921 0 111.953 86.246"><path fill="#002350" d="M10.921 43.123c0-12.151 6.522-23.128 17.018-30.966l12.013 9.88c-8.041 5.91-13.077 14.377-13.077 23.781 0 17.862 18.169 32.342 40.582 32.342 22.414 0 40.583-14.479 40.583-32.342 0-9.403-5.035-17.87-13.075-23.78l11.717-9.251c10.012 7.791 16.192 18.507 16.192 30.336 0 23.816-25.06 43.123-55.976 43.123s-55.977-19.307-55.977-43.123z"/><path fill="#E10032" d="M70.206 18.718c17.306 1.274 30.837 12.438 30.837 26.021 0 14.44-15.287 26.143-34.146 26.143-16.266 0-29.874-8.707-33.311-20.366l16.121-2.7c1.793 6.11 8.809 10.667 17.189 10.667 9.737 0 17.633-6.154 17.633-13.746 0-7.592-7.896-13.745-17.633-13.745-2.303 0-4.501.344-6.517.97l9.827-13.244zm18.176-.618c-6.11-2.936-13.271-4.625-20.926-4.625-7.742 0-14.98 1.729-21.136 4.728l-9.188-11.608c8.621-4.178 18.826-6.595 29.765-6.595 11.298 0 21.814 2.579 30.611 7.013l-9.126 11.087z"/></svg>