<svg version="1.1" xmlns="http://www.w3.org/2000/svg" viewBox="0 0 131.386 120.923" width="131.386px" height="120.923px">
<g>
	<path fill="#FFE500" d="M17.032,0h97.321c9.408,0,17.033,7.607,17.033,16.992v86.939c0,9.385-7.625,16.992-17.033,16.992H17.032
		C7.625,120.923,0,113.315,0,103.931V16.992C0,7.607,7.625,0,17.032,0L17.032,0z"/>
	<path fill="#000000" d="M121.913,98.516v-5.379h-3.384V79.286h-8.097L94.082,89.715v8.801h17.808v4.817h6.64v-4.817H121.913
		L121.913,98.516z M111.89,93.137H99.584v-0.067l12.306-8.004V93.137L111.89,93.137z M84.931,103.129h6.492V79.082H81.177
		l-7.54,15.478l-7.543-15.478H55.85v24.047h6.489V85.858h0.06l8.744,17.271h4.987l8.742-17.271h0.059V103.129L84.931,103.129z
		 M86.462,70.168v-1.933c0-3.496-2.804-3.943-5.248-3.943h-2.128c-2.445,0-5.25,0.447-5.25,3.943v1.933
		c0,3.497,2.805,3.944,5.25,3.944h2.128C83.658,74.112,86.462,73.665,86.462,70.168L86.462,70.168z M84.229,70.081
		c0,1.552-0.647,2.074-2.566,2.074h-3.025c-1.917,0-2.563-0.522-2.563-2.074v-1.76c0-1.551,0.646-2.074,2.563-2.074h3.025
		c1.919,0,2.566,0.523,2.566,2.074V70.081L84.229,70.081z M68.73,73.975h2.233v-9.546h-0.373h-1.86V73.975L68.73,73.975z
		 M68.73,63.106h2.233v-2.368h-0.373h-1.86V63.106L68.73,63.106z M63.361,73.975h2.13V60.739h-0.374h-1.86c0,0,0,2.888,0,4.183
		c-0.532-0.417-1.308-0.63-2.479-0.63h-2.264c-3.722,0-5.041,1.095-5.041,4.186v1.553c0,3.617,2.648,4.082,4.955,4.082H60.5
		c1.254,0,2.216-0.316,2.861-0.871C63.361,73.378,63.361,73.975,63.361,73.975L63.361,73.975z M63.257,69.993
		c0,1.299-0.434,2.162-2.549,2.162h-2.421c-2.207,0-2.579-0.66-2.579-2.144v-1.726c0-1.6,0.577-2.039,2.685-2.039h2.005
		c2.217,0,2.859,0.465,2.859,2.074V69.993L63.257,69.993z M34.944,85.065h17.778v-5.779H27.554v24.047h7.39v-8.204h16.945v-5.58
		H34.944V85.065L34.944,85.065z M48.779,73.975h2.234V67.7c0-3.145-2.583-3.408-5.005-3.408h-2.351
		c-2.007,0-4.058,0.313-4.058,2.635v0.395h2.212l0.023-0.275c0-0.355,0-0.799,1.856-0.799h2.177c2.395,0,2.912,0.252,2.912,1.421
		c0,0,0,0.384,0,0.767c-0.62-0.433-1.472-0.539-2.806-0.539h-2.386c-2.485,0-4.385,0.193-4.385,2.617v0.585
		c0,2.085,0.989,3.015,3.209,3.015h3.562c1.518,0,2.291-0.123,2.806-0.465C48.779,73.72,48.779,73.975,48.779,73.975L48.779,73.975z
		 M48.779,71.235c0,0.65-0.468,0.92-3.36,0.92h-1.972c-2.01,0-2.01-0.385-2.01-1.021v-0.277c0-0.697,0.084-1.006,2.08-1.006H45.8
		c2.529,0,2.979,0.258,2.979,0.99V71.235L48.779,71.235z M35.563,69.146h2.132v-1.428c0-2.434-1.18-3.426-4.073-3.426h-1.4
		c-1.053,0-1.783,0.371-2.358,0.912c0-0.174,0-0.775,0-0.775h-2.132v9.546h2.238v-5.964c0-0.854,0.514-1.764,1.959-1.764h0.916
		c2.551,0,2.718,0.27,2.718,2.144V69.146L35.563,69.146z"/>
</g>
</svg>
